# xmcd CD database file
#
# Track frame offsets:
#	150
#	15403
#	29703
#	46853
#	64707
#	79834
#	99278
#	122822
#	137174
#	158205
#	177746
#	193074
#	207871
#	223369
#	241658
#	259373
#
# Disc length: 3663 seconds
#
# Revision: 2
# Processed by: cddbd v1.4b41PL1 Copyright (c) Steve Scherf et al.
# Submitted via: Feurio! 1.50.2ß - http://www.feurio.com
#
DISCID=e90e4d10
DTITLE=Juliane Werding - von Anfang an...
DYEAR=1900
DGENRE=
TTITLE0=Nacht voll Schatten
TTITLE1=Geh nicht in die Stadt
TTITLE2=Sonne auf der Haut
TTITLE3=Drei Jahre lang
TTITLE4=Lohn der Angst
TTITLE5=Stimmen im Wind
TTITLE6=Sehnsucht ist unheilbar
TTITLE7=Das Würfelspiel
TTITLE8=Vielleicht irgendwann
TTITLE9=Komm und hilf mir durch die Einsamkeit der Nacht
TTITLE10=Man Muss das Leben eben nehmen wie das Leben eben ist
TTITLE11=Wenn Du denkst  dann denkst Du nur Du denkst
TTITLE12=Kinder des Regenbogens
TTITLE13=Wildes Wasser
TTITLE14=Die Antwort weiss ganz alleine der Wind
TTITLE15=Am Tag, als Conny Kramer starb
EXTD=
EXTT0='83 Moonlight Shadow
EXTT1='84
EXTT2='84
EXTT3='85
EXTT4='85
EXTT5='86
EXTT6='86
EXTT7='86
EXTT8='87
EXTT9='76
EXTT10='76
EXTT11='75
EXTT12='72
EXTT13='73 Nights In White Satin
EXTT14='73 Blowin' In The Wind
EXTT15='71 The Night They Drove Old Dixie Down
PLAYORDER=
